<?xml version="1.0" standalone="no"?>
<!DOCTYPE svg PUBLIC "-//W3C//DTD SVG 20010904//EN"
 "http://www.w3.org/TR/2001/REC-SVG-20010904/DTD/svg10.dtd">
<svg version="1.0" xmlns="http://www.w3.org/2000/svg"
 width="16.000000pt" height="16.000000pt" viewBox="0 0 16.000000 16.000000"
 preserveAspectRatio="xMidYMid meet">
<metadata>
Created by potrace 1.11, written by Peter Selinger 2001-2013
</metadata>
<g transform="translate(0.000000,16.000000) scale(0.005333,-0.005333)"
fill="#000000" stroke="none">
<path d="M0 1500 l0 -1500 1500 0 1500 0 0 1500 0 1500 -1500 0 -1500 0 0
-1500z m1923 886 c43 -17 93 -76 106 -123 16 -55 14 -179 -3 -211 -22 -41 -65
-78 -126 -106 -60 -28 -102 -33 -118 -13 -6 7 -10 46 -9 87 2 131 -53 200
-159 200 -46 0 -59 -5 -89 -32 -117 -102 -229 -357 -340 -776 -54 -203 -80
-277 -139 -389 -24 -45 -41 -84 -38 -87 3 -3 39 -6 81 -6 78 0 171 -19 421
-85 143 -38 240 -52 285 -41 21 5 33 21 55 69 32 71 64 104 133 141 88 46 147
44 147 -6 0 -23 -44 -111 -78 -156 -60 -78 -226 -186 -336 -218 -98 -27 -277
-15 -441 30 -187 52 -334 86 -376 86 -28 0 -48 -9 -84 -39 -99 -82 -215 -117
-230 -71 -8 25 11 56 75 125 116 125 190 280 255 535 117 458 243 735 401 879
158 145 324 220 487 221 52 0 101 -5 120 -14z"/>
</g>
</svg>
